<?xml version="1.0" encoding="UTF-8"?>
<svg id="Layer_1" data-name="Layer 1" xmlns="http://www.w3.org/2000/svg" viewBox="0 0 469.5 536.24">
  <defs>
    <style>
      .cls-1 {
        fill: #2d3324;
      }
    </style>
  </defs>
  <path class="cls-1" d="M126.68,227.64h-25.85c0,14.27,11.57,25.85,25.85,25.85h25.85v-25.85h-25.85Z"/>
  <path class="cls-1" d="M403.78,141.93L469.5,0h-135.98l-32.57,70.34V0H168.55V70.34L135.98,0H0L65.72,141.93H403.78Zm-53.76-116.08h79.01l-41.8,90.24h-79.01l41.8-90.24Zm-155.62,0h80.71V116.08h-80.71V25.85Zm-74.95,0l41.8,90.24H82.22L40.43,25.85H119.44Z"/>
  <path class="cls-1" d="M65.72,163.38L4.84,294.78l218.46,236.46c6.15,6.66,16.67,6.66,22.82,0l218.46-236.46-60.81-131.4H65.72Zm169.03,194.54l-37.55-40.69h75.06l-37.51,40.69Zm12.92,133.57v-109.49l63.62-68.94c3.47-3.77,4.39-9.23,2.33-13.96-2.07-4.69-6.68-7.72-11.82-7.72H167.7c-5.13,0-9.78,3.03-11.85,7.72-2.07,4.73-1.14,10.19,2.33,13.96l63.65,68.98v109.49L35.56,289.95l46.67-100.72H387.27l46.59,100.72-186.2,201.55Z"/>
  <path class="cls-1" d="M340.49,227.64h-25.85v25.85h25.85c14.27,0,25.85-11.57,25.85-25.85h0s-25.85,0-25.85,0Z"/>
</svg>